<svg width="32" height="32" viewBox="0 0 98 96" xmlns="http://www.w3.org/2000/svg" role="img" aria-label="GitHub">
  <title>GitHub</title>
  <path fill="#24292f" d="M48.854 0C21.839 0 0 22 0 49.217c0 21.756 13.993 40.172 33.405 46.69 2.427.49 3.316-1.059 3.316-2.362 0-1.162-.043-4.243-.065-8.338-13.59 2.96-16.45-6.59-16.45-6.59-2.21-5.653-5.408-7.163-5.408-7.163-4.42-3.046.335-2.984.335-2.984 4.89.345 7.468 5.032 7.468 5.032 4.337 7.486 11.385 5.324 14.155 4.073.44-3.155 1.697-5.326 3.087-6.553-10.843-1.26-22.238-5.545-22.238-24.691 0-5.457 1.936-9.92 5.105-13.42-.513-1.259-2.211-6.345.485-13.23 0 0 4.16-1.34 13.637 5.123a47.52 47.52 0 0 1 12.422-1.675c4.217.019 8.467.57 12.421 1.675 9.477-6.463 13.637-5.123 13.637-5.123 2.696 6.885.998 11.971.485 13.23 3.169 3.5 5.105 7.963 5.105 13.42 0 19.195-11.417 23.409-22.289 24.648 1.744 1.51 3.296 4.485 3.296 9.04 0 6.523-.056 11.794-.056 13.396 0 1.31.868 2.87 3.34 2.356C84.024 89.374 98 70.966 98 49.217 98 22 76.06 0 48.854 0z"/>
</svg>
